# xmcd
#
# Track frame offsets:
#	150
#	21399
#	42012
#	63293
#	83972
#	104389
#	130167
#	151581
#	169905
#	191792
#	212866
#	234470
#	255689
#	275692
#	293131
#
# Disc length: 4232 seconds
#
# Revision: 3
# Processed by: cddbd v1.5.2PL0 Copyright (c) Steve Scherf et al.
# Submitted via: EasyCDDAExtractor 15.3.0.1
#
DISCID=d610860f
DTITLE=Luis Enrique - 15 Grandes
DYEAR=2000
DGENRE=Latin
TTITLE0=Asi Es La Vida
TTITLE1=Lucia
TTITLE2=Solo
TTITLE3=Amiga
TTITLE4=Tu No Le Amas Le Temes
TTITLE5=Amor De Medianoche
TTITLE6=Mi Mundo
TTITLE7=No Te Quites La Ropa
TTITLE8=Amor Y Alegria
TTITLE9=Lo Que Paso Entre Tu Y Yo... Paso
TTITLE10=Date Un Chance
TTITLE11=Un Hombre Afortunado
TTITLE12=Quimica Perfecta
TTITLE13=Desesperado
TTITLE14=Pregunta Por Ahi
EXTD=
EXTT0=
EXTT1=
EXTT2=
EXTT3=
EXTT4=
EXTT5=
EXTT6=
EXTT7=
EXTT8=
EXTT9=
EXTT10=
EXTT11=
EXTT12=
EXTT13=
EXTT14=
PLAYORDER=
